<svg width="41" height="42" viewBox="0 0 41 42" fill="none" xmlns="http://www.w3.org/2000/svg">
<path d="M38.0714 0.563965H2.91942C1.30871 0.563965 0 1.89097 0 3.51999V38.6079C0 40.237 1.30871 41.564 2.91942 41.564H38.0714C39.6821 41.564 41 40.237 41 38.6079V3.51999C41 1.89097 39.6821 0.563965 38.0714 0.563965ZM12.3915 35.7068H6.31473V16.1403H12.4007V35.7068H12.3915ZM9.35312 13.468C7.40379 13.468 5.82969 11.8847 5.82969 9.94455C5.82969 8.00437 7.40379 6.42111 9.35312 6.42111C11.2933 6.42111 12.8766 8.00437 12.8766 9.94455C12.8766 11.8939 11.3025 13.468 9.35312 13.468ZM35.1703 35.7068H29.0935V26.189C29.0935 23.9193 29.0478 20.9999 25.9362 20.9999C22.7696 20.9999 22.2846 23.4709 22.2846 26.0242V35.7068H16.2078V16.1403H22.0375V18.8126H22.1199C22.9344 17.2751 24.9203 15.6553 27.8763 15.6553C34.0263 15.6553 35.1703 19.7095 35.1703 24.9809V35.7068Z" fill="white"/>
</svg>
