<svg width="151" height="31" viewBox="0 0 151 31" fill="none" xmlns="http://www.w3.org/2000/svg">
<path fill-rule="evenodd" clip-rule="evenodd" d="M18.1026 7.14914C18.1026 9.44199 16.2439 11.3007 13.9511 11.3007C11.6582 11.3007 9.79948 9.44199 9.79948 7.14914C9.79948 4.85628 11.6582 2.99756 13.9511 2.99756C16.2439 2.99756 18.1026 4.85628 18.1026 7.14914ZM18.1026 16.7808C18.1026 19.0736 16.2439 20.9323 13.9511 20.9323C11.6582 20.9323 9.79948 19.0736 9.79948 16.7808C9.79948 14.4879 11.6582 12.6292 13.9511 12.6292C16.2439 12.6292 18.1026 14.4879 18.1026 16.7808ZM4.65158 20.9323C6.94443 20.9323 8.80315 19.0736 8.80315 16.7808C8.80315 14.4879 6.94443 12.6292 4.65158 12.6292C2.35872 12.6292 0.5 14.4879 0.5 16.7808C0.5 19.0736 2.35872 20.9323 4.65158 20.9323ZM27.4023 16.7808C27.4023 19.0736 25.5436 20.9323 23.2507 20.9323C20.9578 20.9323 19.0991 19.0736 19.0991 16.7808C19.0991 14.4879 20.9578 12.6292 23.2507 12.6292C25.5436 12.6292 27.4023 14.4879 27.4023 16.7808ZM31.5539 30.564C33.8467 30.564 35.7054 28.7052 35.7054 26.4124C35.7054 24.1195 33.8467 22.2608 31.5539 22.2608C29.261 22.2608 27.4023 24.1195 27.4023 26.4124C27.4023 28.7052 29.261 30.564 31.5539 30.564ZM19.0991 7.14914C19.0991 4.85628 20.9578 2.99756 23.2507 2.99756H31.5539C33.8467 2.99756 35.7054 4.85628 35.7054 7.14914C35.7054 9.44199 33.8467 11.3007 31.5539 11.3007H23.2507C20.9578 11.3007 19.0991 9.44199 19.0991 7.14914ZM13.9511 22.2608C11.6582 22.2608 9.79948 24.1195 9.79948 26.4124C9.79948 28.7052 11.6582 30.564 13.9511 30.564H22.2542C24.5471 30.564 26.4058 28.7052 26.4058 26.4124C26.4058 24.1195 24.5471 22.2608 22.2542 22.2608H13.9511Z" fill="white"/>
<path d="M55.5359 26.3308C53.7055 26.3308 52.0846 25.9559 50.6732 25.2061C49.2838 24.4342 48.1922 23.3867 47.3983 22.0635C46.6264 20.7183 46.2405 19.1745 46.2405 17.4323C46.2405 16.065 46.461 14.819 46.9021 13.6943C47.3431 12.5696 47.9606 11.5993 48.7546 10.7833C49.5485 9.94529 50.4857 9.30575 51.5663 8.86469C52.669 8.40157 53.8599 8.17001 55.1389 8.17001C56.3078 8.17001 57.3773 8.39054 58.3477 8.83161C59.3401 9.27267 60.2001 9.87913 60.9279 10.651C61.6557 11.4008 62.207 12.305 62.5819 13.3635C62.9788 14.4 63.1663 15.5358 63.1442 16.7707L63.1112 18.2263H49.0192L48.2253 15.4145H59.704L59.2078 15.9768V15.216C59.1416 14.5544 58.9211 13.97 58.5462 13.4628C58.1713 12.9335 57.6861 12.5255 57.0907 12.2388C56.5173 11.9301 55.8777 11.7757 55.172 11.7757C54.0914 11.7757 53.1762 11.9852 52.4264 12.4042C51.6766 12.8012 51.1032 13.3966 50.7063 14.1905C50.3314 14.9844 50.1439 15.9658 50.1439 17.1346C50.1439 18.2593 50.3755 19.2407 50.8386 20.0787C51.3237 20.9167 52.0074 21.5673 52.8895 22.0304C53.7716 22.4935 54.7971 22.7251 55.9659 22.7251C56.7819 22.7251 57.5317 22.5928 58.2154 22.3281C58.9211 22.0635 59.6709 21.5894 60.4648 20.9057L62.4496 23.6844C61.8541 24.2357 61.1705 24.7099 60.3986 25.1068C59.6488 25.4818 58.8549 25.7795 58.0169 26C57.1789 26.2205 56.3519 26.3308 55.5359 26.3308ZM64.5315 26V8.56697H68.5011L68.5673 12.1065L67.9057 12.3711C68.1041 11.7978 68.4019 11.2685 68.7988 10.7833C69.1958 10.2761 69.6699 9.83503 70.2212 9.46012C70.7726 9.08522 71.357 8.79853 71.9745 8.60005C72.592 8.37952 73.2315 8.26925 73.8931 8.26925C74.8414 8.26925 75.6794 8.42362 76.4072 8.73237C77.1349 9.04111 77.7414 9.51526 78.2265 10.1548C78.7338 10.7943 79.1197 11.6103 79.3843 12.6027L78.7558 12.4704L78.9874 11.9411C79.252 11.4118 79.6049 10.9267 80.0459 10.4856C80.487 10.0445 80.9832 9.6586 81.5345 9.3278C82.0858 8.97495 82.6592 8.71031 83.2547 8.53389C83.8722 8.35746 84.4676 8.26925 85.041 8.26925C86.3642 8.26925 87.4668 8.53389 88.3489 9.06317C89.2311 9.59244 89.8927 10.3974 90.3337 11.478C90.7748 12.5586 90.9953 13.8928 90.9953 15.4806V26H86.9265V15.7453C86.9265 14.4221 86.6619 13.4407 86.1326 12.8012C85.6254 12.1616 84.8315 11.8419 83.7509 11.8419C83.1775 11.8419 82.6482 11.9411 82.163 12.1396C81.6779 12.316 81.2478 12.5806 80.8729 12.9335C80.5201 13.2643 80.2444 13.6613 80.0459 14.1244C79.8475 14.5654 79.7482 15.0616 79.7482 15.613V26H75.6794V15.7122C75.6794 14.4552 75.4037 13.4959 74.8524 12.8343C74.3231 12.1727 73.5623 11.8419 72.5699 11.8419C71.9965 11.8419 71.4672 11.9411 70.9821 12.1396C70.519 12.316 70.1 12.5806 69.725 12.9335C69.3722 13.2643 69.0965 13.6502 68.8981 14.0913C68.6996 14.5324 68.6003 15.0175 68.6003 15.5468V26H64.5315ZM102.956 26.3308C102.184 26.3308 101.434 26.2205 100.707 26C99.9788 25.7574 99.3062 25.4376 98.6887 25.0407C98.0933 24.6437 97.5971 24.2027 97.2001 23.7175C96.8032 23.2103 96.5385 22.7031 96.4062 22.1958L97.3655 21.7658L97.2663 25.9008H93.3629V1.52098H97.3986V12.5696L96.7039 12.2719C96.8142 11.7426 97.0568 11.2464 97.4317 10.7833C97.8066 10.2981 98.2807 9.86811 98.8541 9.4932C99.4275 9.09625 100.056 8.7875 100.74 8.56697C101.423 8.32438 102.129 8.20309 102.857 8.20309C104.4 8.20309 105.768 8.60005 106.959 9.39396C108.172 10.1658 109.12 11.2354 109.803 12.6027C110.509 13.9479 110.862 15.5027 110.862 17.2669C110.862 19.0091 110.52 20.5639 109.837 21.9312C109.153 23.2985 108.205 24.3791 106.992 25.173C105.801 25.9449 104.456 26.3308 102.956 26.3308ZM102.129 22.7582C103.055 22.7582 103.882 22.5266 104.61 22.0635C105.338 21.5783 105.911 20.9278 106.33 20.1118C106.749 19.2738 106.959 18.3255 106.959 17.2669C106.959 16.1863 106.749 15.2381 106.33 14.4221C105.933 13.5841 105.371 12.9335 104.643 12.4704C103.915 12.0073 103.077 11.7757 102.129 11.7757C101.159 11.7757 100.31 12.0073 99.5819 12.4704C98.8541 12.9335 98.2807 13.5841 97.8617 14.4221C97.4427 15.2381 97.2332 16.1863 97.2332 17.2669C97.2332 18.3255 97.4427 19.2738 97.8617 20.1118C98.2807 20.9278 98.8541 21.5783 99.5819 22.0635C100.31 22.5266 101.159 22.7582 102.129 22.7582ZM121.503 26.3308C119.672 26.3308 118.052 25.9559 116.64 25.2061C115.251 24.4342 114.159 23.3867 113.365 22.0635C112.593 20.7183 112.207 19.1745 112.207 17.4323C112.207 16.065 112.428 14.819 112.869 13.6943C113.31 12.5696 113.928 11.5993 114.722 10.7833C115.515 9.94529 116.453 9.30575 117.533 8.86469C118.636 8.40157 119.827 8.17001 121.106 8.17001C122.275 8.17001 123.344 8.39054 124.315 8.83161C125.307 9.27267 126.167 9.87913 126.895 10.651C127.623 11.4008 128.174 12.305 128.549 13.3635C128.946 14.4 129.133 15.5358 129.111 16.7707L129.078 18.2263H114.986L114.192 15.4145H125.671L125.175 15.9768V15.216C125.109 14.5544 124.888 13.97 124.513 13.4628C124.138 12.9335 123.653 12.5255 123.058 12.2388C122.484 11.9301 121.845 11.7757 121.139 11.7757C120.058 11.7757 119.143 11.9852 118.393 12.4042C117.644 12.8012 117.07 13.3966 116.673 14.1905C116.298 14.9844 116.111 15.9658 116.111 17.1346C116.111 18.2593 116.342 19.2407 116.806 20.0787C117.291 20.9167 117.974 21.5673 118.856 22.0304C119.739 22.4935 120.764 22.7251 121.933 22.7251C122.749 22.7251 123.499 22.5928 124.182 22.3281C124.888 22.0635 125.638 21.5894 126.432 20.9057L128.417 23.6844C127.821 24.2357 127.137 24.7099 126.366 25.1068C125.616 25.4818 124.822 25.7795 123.984 26C123.146 26.2205 122.319 26.3308 121.503 26.3308ZM138.603 26.3308C137.037 26.3308 135.637 25.9449 134.402 25.173C133.189 24.3791 132.219 23.3095 131.491 21.9643C130.785 20.597 130.432 19.0312 130.432 17.2669C130.432 15.5247 130.785 13.97 131.491 12.6027C132.197 11.2354 133.156 10.1658 134.369 9.39396C135.604 8.60005 136.993 8.20309 138.537 8.20309C139.375 8.20309 140.18 8.33541 140.952 8.60005C141.746 8.86469 142.451 9.22856 143.069 9.69168C143.708 10.1327 144.205 10.6289 144.557 11.1803C144.932 11.7316 145.131 12.305 145.153 12.9004L144.061 13.0327V1.52098H148.13V26H144.194L144.094 21.9312L144.888 21.9973C144.866 22.5266 144.679 23.0449 144.326 23.5521C143.973 24.0593 143.499 24.5224 142.903 24.9414C142.33 25.3605 141.668 25.7023 140.919 25.9669C140.169 26.2095 139.397 26.3308 138.603 26.3308ZM139.364 22.8905C140.312 22.8905 141.15 22.6589 141.878 22.1958C142.606 21.7107 143.168 21.0491 143.565 20.211C143.984 19.351 144.194 18.3696 144.194 17.2669C144.194 16.1643 143.984 15.1939 143.565 14.3559C143.168 13.5179 142.606 12.8563 141.878 12.3711C141.15 11.886 140.312 11.6434 139.364 11.6434C138.394 11.6434 137.544 11.886 136.817 12.3711C136.111 12.8563 135.549 13.5179 135.13 14.3559C134.711 15.1939 134.501 16.1643 134.501 17.2669C134.501 18.3696 134.711 19.351 135.13 20.211C135.549 21.0491 136.111 21.7107 136.817 22.1958C137.544 22.6589 138.394 22.8905 139.364 22.8905Z" fill="white"/>
</svg>
