<svg width="40" height="41" viewBox="0 0 40 41" fill="none" xmlns="http://www.w3.org/2000/svg">
<path d="M20 0.0639648C8.95427 0.0639648 0 9.01824 0 20.064C0 31.1097 8.95427 40.064 20 40.064C31.0457 40.064 40 31.1097 40 20.064C40 9.01824 31.0457 0.0639648 20 0.0639648ZM29.2703 13.6656C28.9694 16.8281 27.667 24.5025 27.0042 28.0446C26.7239 29.5433 26.1718 30.0459 25.6374 30.095C24.4761 30.2019 23.594 29.3275 22.4691 28.5901C20.7089 27.4362 19.7144 26.7179 18.0057 25.5919C16.0311 24.2907 17.3112 23.5758 18.4365 22.4065C18.731 22.1006 23.8484 17.446 23.9474 17.0237C23.9598 16.9709 23.9716 16.7737 23.8544 16.6702C23.7371 16.5666 23.5648 16.6017 23.4402 16.6299C23.2637 16.67 20.4517 18.5286 15.0041 22.2058C14.206 22.7539 13.483 23.0209 12.8352 23.0069C12.1211 22.9915 10.7475 22.6032 9.72629 22.2712C8.47379 21.8641 7.47831 21.6489 7.565 20.9574C7.61016 20.5972 8.10613 20.2289 9.0529 19.8526C14.8833 17.3124 18.7712 15.6376 20.7165 14.8284C26.2706 12.5182 27.4248 12.1169 28.177 12.1035C28.3425 12.1007 28.7124 12.1417 28.952 12.3361C29.1114 12.4746 29.213 12.6679 29.2367 12.8778C29.2773 13.1383 29.2886 13.4025 29.2703 13.6656Z" fill="white"/>
</svg>
