<svg width="40" height="34" viewBox="0 0 40 34" fill="none" xmlns="http://www.w3.org/2000/svg">
<path d="M35.8884 8.91675C35.9138 9.27206 35.9138 9.62745 35.9138 9.98277C35.9138 20.8203 27.6651 33.3077 12.5889 33.3077C7.94417 33.3077 3.62947 31.9625 0 29.6275C0.659924 29.7036 1.29438 29.729 1.9797 29.729C5.81213 29.729 9.34012 28.4346 12.1574 26.2265C8.55332 26.1503 5.53299 23.7899 4.49236 20.5412C5.00002 20.6173 5.5076 20.668 6.04065 20.668C6.77667 20.668 7.51276 20.5665 8.198 20.3889C4.44166 19.6274 1.6243 16.328 1.6243 12.3432V12.2417C2.71564 12.8508 3.98478 13.2315 5.32986 13.2822C3.12173 11.8101 1.67508 9.29745 1.67508 6.45479C1.67508 4.93197 2.0811 3.53603 2.79181 2.31774C6.82737 7.29237 12.8934 10.5411 19.6954 10.8964C19.5685 10.2873 19.4923 9.65285 19.4923 9.01831C19.4923 4.50048 23.1472 0.820312 27.6903 0.820312C30.0507 0.820312 32.1827 1.81016 33.6802 3.40915C35.533 3.05384 37.3096 2.36852 38.8833 1.42946C38.2741 3.33306 36.9797 4.93205 35.2792 5.94721C36.929 5.76963 38.528 5.31267 40 4.67822C38.8834 6.30252 37.4874 7.74917 35.8884 8.91675Z" fill="white"/>
</svg>
