<svg width="150" height="31" viewBox="0 0 150 31" fill="none" xmlns="http://www.w3.org/2000/svg">
<path fill-rule="evenodd" clip-rule="evenodd" d="M17.6026 7.1492C17.6026 9.44205 15.7439 11.3008 13.4511 11.3008C11.1582 11.3008 9.29948 9.44205 9.29948 7.1492C9.29948 4.85634 11.1582 2.99762 13.4511 2.99762C15.7439 2.99762 17.6026 4.85634 17.6026 7.1492ZM17.6026 16.7808C17.6026 19.0737 15.7439 20.9324 13.4511 20.9324C11.1582 20.9324 9.29948 19.0737 9.29948 16.7808C9.29948 14.488 11.1582 12.6292 13.4511 12.6292C15.7439 12.6292 17.6026 14.488 17.6026 16.7808ZM4.15158 20.9324C6.44443 20.9324 8.30315 19.0737 8.30315 16.7808C8.30315 14.488 6.44443 12.6292 4.15158 12.6292C1.85872 12.6292 0 14.488 0 16.7808C0 19.0737 1.85872 20.9324 4.15158 20.9324ZM26.9023 16.7808C26.9023 19.0737 25.0436 20.9324 22.7507 20.9324C20.4578 20.9324 18.5991 19.0737 18.5991 16.7808C18.5991 14.488 20.4578 12.6292 22.7507 12.6292C25.0436 12.6292 26.9023 14.488 26.9023 16.7808ZM31.0539 30.564C33.3467 30.564 35.2054 28.7053 35.2054 26.4125C35.2054 24.1196 33.3467 22.2609 31.0539 22.2609C28.761 22.2609 26.9023 24.1196 26.9023 26.4125C26.9023 28.7053 28.761 30.564 31.0539 30.564ZM18.5991 7.1492C18.5991 4.85634 20.4578 2.99762 22.7507 2.99762H31.0539C33.3467 2.99762 35.2054 4.85634 35.2054 7.1492C35.2054 9.44205 33.3467 11.3008 31.0539 11.3008H22.7507C20.4578 11.3008 18.5991 9.44205 18.5991 7.1492ZM13.4511 22.2609C11.1582 22.2609 9.29948 24.1196 9.29948 26.4125C9.29948 28.7053 11.1582 30.564 13.4511 30.564H21.7542C24.0471 30.564 25.9058 28.7053 25.9058 26.4125C25.9058 24.1196 24.0471 22.2609 21.7542 22.2609H13.4511Z" fill="url(#paint0_linear_1501_194)"/>
<path d="M55.0359 26.0429C53.2055 26.0429 51.5846 25.668 50.1732 24.9182C48.7838 24.1463 47.6922 23.0988 46.8983 21.7756C46.1264 20.4304 45.7405 18.8866 45.7405 17.1444C45.7405 15.7771 45.961 14.5311 46.4021 13.4064C46.8431 12.2817 47.4606 11.3114 48.2546 10.4954C49.0485 9.65739 49.9857 9.01785 51.0663 8.57678C52.169 8.11367 53.3599 7.88211 54.6389 7.88211C55.8078 7.88211 56.8773 8.10264 57.8477 8.5437C58.8401 8.98477 59.7001 9.59123 60.4279 10.3631C61.1557 11.1129 61.707 12.0171 62.0819 13.0756C62.4788 14.1121 62.6663 15.2479 62.6442 16.4828L62.6112 17.9384H48.5192L47.7253 15.1266H59.204L58.7078 15.6889V14.9281C58.6416 14.2665 58.4211 13.6821 58.0462 13.1749C57.6713 12.6456 57.1861 12.2376 56.5907 11.9509C56.0173 11.6422 55.3777 11.4878 54.672 11.4878C53.5914 11.4878 52.6762 11.6973 51.9264 12.1163C51.1766 12.5133 50.6032 13.1087 50.2063 13.9026C49.8314 14.6965 49.6439 15.6779 49.6439 16.8467C49.6439 17.9714 49.8755 18.9528 50.3386 19.7908C50.8237 20.6288 51.5074 21.2794 52.3895 21.7425C53.2716 22.2056 54.2971 22.4372 55.4659 22.4372C56.2819 22.4372 57.0317 22.3049 57.7154 22.0402C58.4211 21.7756 59.1709 21.3015 59.9648 20.6178L61.9496 23.3965C61.3541 23.9478 60.6705 24.422 59.8986 24.8189C59.1488 25.1938 58.3549 25.4916 57.5169 25.7121C56.6789 25.9326 55.8519 26.0429 55.0359 26.0429ZM64.0315 25.7121V8.27907H68.0011L68.0673 11.8186L67.4057 12.0832C67.6041 11.5099 67.9019 10.9806 68.2988 10.4954C68.6958 9.98819 69.1699 9.54712 69.7212 9.17222C70.2726 8.79732 70.857 8.51062 71.4745 8.31215C72.092 8.09161 72.7315 7.98135 73.3931 7.98135C74.3414 7.98135 75.1794 8.13572 75.9072 8.44447C76.6349 8.75321 77.2414 9.22735 77.7265 9.86689C78.2338 10.5064 78.6197 11.3224 78.8843 12.3148L78.2558 12.1825L78.4874 11.6532C78.752 11.1239 79.1049 10.6388 79.5459 10.1977C79.987 9.75663 80.4832 9.3707 81.0345 9.0399C81.5858 8.68705 82.1592 8.42241 82.7547 8.24599C83.3722 8.06956 83.9676 7.98135 84.541 7.98135C85.8642 7.98135 86.9668 8.24599 87.8489 8.77526C88.7311 9.30454 89.3927 10.1095 89.8337 11.1901C90.2748 12.2707 90.4953 13.6049 90.4953 15.1927V25.7121H86.4265V15.4574C86.4265 14.1342 86.1619 13.1528 85.6326 12.5133C85.1254 11.8737 84.3315 11.554 83.2509 11.554C82.6775 11.554 82.1482 11.6532 81.663 11.8517C81.1779 12.0281 80.7478 12.2927 80.3729 12.6456C80.0201 12.9764 79.7444 13.3733 79.5459 13.8365C79.3475 14.2775 79.2482 14.7737 79.2482 15.3251V25.7121H75.1794V15.4243C75.1794 14.1673 74.9037 13.2079 74.3524 12.5464C73.8231 11.8848 73.0623 11.554 72.0699 11.554C71.4965 11.554 70.9672 11.6532 70.4821 11.8517C70.019 12.0281 69.6 12.2927 69.225 12.6456C68.8722 12.9764 68.5965 13.3623 68.3981 13.8034C68.1996 14.2444 68.1003 14.7296 68.1003 15.2589V25.7121H64.0315ZM102.456 26.0429C101.684 26.0429 100.934 25.9326 100.207 25.7121C99.4788 25.4695 98.8062 25.1497 98.1887 24.7528C97.5933 24.3558 97.0971 23.9148 96.7001 23.4296C96.3032 22.9224 96.0385 22.4151 95.9062 21.9079L96.8655 21.4779L96.7663 25.6129H92.8629V1.23308H96.8986V12.2817L96.2039 11.984C96.3142 11.4547 96.5568 10.9585 96.9317 10.4954C97.3066 10.0102 97.7807 9.5802 98.3541 9.2053C98.9275 8.80834 99.556 8.4996 100.24 8.27907C100.923 8.03648 101.629 7.91519 102.357 7.91519C103.9 7.91519 105.268 8.31215 106.459 9.10606C107.672 9.87792 108.62 10.9475 109.303 12.3148C110.009 13.66 110.362 15.2148 110.362 16.979C110.362 18.7212 110.02 20.276 109.337 21.6433C108.653 23.0106 107.705 24.0912 106.492 24.8851C105.301 25.657 103.956 26.0429 102.456 26.0429ZM101.629 22.4703C102.555 22.4703 103.382 22.2387 104.11 21.7756C104.838 21.2904 105.411 20.6399 105.83 19.8239C106.249 18.9859 106.459 18.0376 106.459 16.979C106.459 15.8984 106.249 14.9501 105.83 14.1342C105.433 13.2962 104.871 12.6456 104.143 12.1825C103.415 11.7194 102.577 11.4878 101.629 11.4878C100.659 11.4878 99.8096 11.7194 99.0819 12.1825C98.3541 12.6456 97.7807 13.2962 97.3617 14.1342C96.9427 14.9501 96.7332 15.8984 96.7332 16.979C96.7332 18.0376 96.9427 18.9859 97.3617 19.8239C97.7807 20.6399 98.3541 21.2904 99.0819 21.7756C99.8096 22.2387 100.659 22.4703 101.629 22.4703ZM121.003 26.0429C119.172 26.0429 117.552 25.668 116.14 24.9182C114.751 24.1463 113.659 23.0988 112.865 21.7756C112.093 20.4304 111.707 18.8866 111.707 17.1444C111.707 15.7771 111.928 14.5311 112.369 13.4064C112.81 12.2817 113.428 11.3114 114.222 10.4954C115.015 9.65739 115.953 9.01785 117.033 8.57678C118.136 8.11367 119.327 7.88211 120.606 7.88211C121.775 7.88211 122.844 8.10264 123.815 8.5437C124.807 8.98477 125.667 9.59123 126.395 10.3631C127.123 11.1129 127.674 12.0171 128.049 13.0756C128.446 14.1121 128.633 15.2479 128.611 16.4828L128.578 17.9384H114.486L113.692 15.1266H125.171L124.675 15.6889V14.9281C124.609 14.2665 124.388 13.6821 124.013 13.1749C123.638 12.6456 123.153 12.2376 122.558 11.9509C121.984 11.6422 121.345 11.4878 120.639 11.4878C119.558 11.4878 118.643 11.6973 117.893 12.1163C117.144 12.5133 116.57 13.1087 116.173 13.9026C115.798 14.6965 115.611 15.6779 115.611 16.8467C115.611 17.9714 115.842 18.9528 116.306 19.7908C116.791 20.6288 117.474 21.2794 118.356 21.7425C119.239 22.2056 120.264 22.4372 121.433 22.4372C122.249 22.4372 122.999 22.3049 123.682 22.0402C124.388 21.7756 125.138 21.3015 125.932 20.6178L127.917 23.3965C127.321 23.9478 126.637 24.422 125.866 24.8189C125.116 25.1938 124.322 25.4916 123.484 25.7121C122.646 25.9326 121.819 26.0429 121.003 26.0429ZM138.103 26.0429C136.537 26.0429 135.137 25.657 133.902 24.8851C132.689 24.0912 131.719 23.0216 130.991 21.6764C130.285 20.3091 129.932 18.7433 129.932 16.979C129.932 15.2368 130.285 13.6821 130.991 12.3148C131.697 10.9475 132.656 9.87792 133.869 9.10606C135.104 8.31215 136.493 7.91519 138.037 7.91519C138.875 7.91519 139.68 8.04751 140.452 8.31215C141.246 8.57678 141.951 8.94066 142.569 9.40378C143.208 9.84484 143.705 10.341 144.057 10.8924C144.432 11.4437 144.631 12.0171 144.653 12.6125L143.561 12.7448V1.23308H147.63V25.7121H143.694L143.594 21.6433L144.388 21.7094C144.366 22.2387 144.179 22.757 143.826 23.2642C143.473 23.7714 142.999 24.2345 142.403 24.6535C141.83 25.0726 141.168 25.4144 140.419 25.679C139.669 25.9216 138.897 26.0429 138.103 26.0429ZM138.864 22.6026C139.812 22.6026 140.65 22.371 141.378 21.9079C142.106 21.4228 142.668 20.7612 143.065 19.9231C143.484 19.0631 143.694 18.0817 143.694 16.979C143.694 15.8764 143.484 14.906 143.065 14.068C142.668 13.23 142.106 12.5684 141.378 12.0832C140.65 11.5981 139.812 11.3555 138.864 11.3555C137.894 11.3555 137.044 11.5981 136.317 12.0832C135.611 12.5684 135.049 13.23 134.63 14.068C134.211 14.906 134.001 15.8764 134.001 16.979C134.001 18.0817 134.211 19.0631 134.63 19.9231C135.049 20.7612 135.611 21.4228 136.317 21.9079C137.044 22.371 137.894 22.6026 138.864 22.6026Z" fill="#280A5F"/>
<defs>
<linearGradient id="paint0_linear_1501_194" x1="-0.0172639" y1="19.4816" x2="33.2112" y2="19.4816" gradientUnits="userSpaceOnUse">
<stop stop-color="#F059FC"/>
<stop offset="1" stop-color="#16BBFD"/>
</linearGradient>
</defs>
</svg>
