<svg width="30" height="30" viewBox="0 0 30 30" fill="none" xmlns="http://www.w3.org/2000/svg">
<path d="M0 15C0 6.71484 6.71484 0 15 0C23.2852 0 30 6.71484 30 15C30 23.2852 23.2852 30 15 30C6.71484 30 0 23.2852 0 15ZM10.2539 12.1934L13.0137 14.9473L10.2539 17.7539C9.70898 18.3047 9.70898 19.1953 10.2539 19.6934C10.8047 20.291 11.6953 20.291 12.1934 19.6934L14.9473 16.9863L17.7539 19.6934C18.3047 20.291 19.1953 20.291 19.6934 19.6934C20.291 19.1953 20.291 18.3047 19.6934 17.7539L16.9863 14.9473L19.6934 12.1934C20.291 11.6953 20.291 10.8047 19.6934 10.2539C19.1953 9.70898 18.3047 9.70898 17.7539 10.2539L14.9473 13.0137L12.1934 10.2539C11.6953 9.70898 10.8047 9.70898 10.2539 10.2539C9.70898 10.8047 9.70898 11.6953 10.2539 12.1934Z" fill="white"/>
</svg>
