<svg width="40" height="32" viewBox="0 0 40 32" fill="none" xmlns="http://www.w3.org/2000/svg">
<path fill-rule="evenodd" clip-rule="evenodd" d="M20 4.71698C20 7.3221 17.8881 9.43396 15.283 9.43396C12.6779 9.43396 10.566 7.3221 10.566 4.71698C10.566 2.11186 12.6779 0 15.283 0C17.8881 0 20 2.11186 20 4.71698ZM20 15.6603C20 18.2655 17.8881 20.3773 15.283 20.3773C12.6779 20.3773 10.566 18.2655 10.566 15.6603C10.566 13.0552 12.6779 10.9434 15.283 10.9434C17.8881 10.9434 20 13.0552 20 15.6603ZM4.71698 20.3773C7.3221 20.3773 9.43396 18.2655 9.43396 15.6603C9.43396 13.0552 7.3221 10.9434 4.71698 10.9434C2.11186 10.9434 0 13.0552 0 15.6603C0 18.2655 2.11186 20.3773 4.71698 20.3773ZM30.566 15.6603C30.566 18.2655 28.4541 20.3773 25.849 20.3773C23.2439 20.3773 21.132 18.2655 21.132 15.6603C21.132 13.0552 23.2439 10.9434 25.849 10.9434C28.4541 10.9434 30.566 13.0552 30.566 15.6603ZM35.283 31.3207C37.8881 31.3207 40 29.2088 40 26.6037C40 23.9986 37.8881 21.8868 35.283 21.8868C32.6779 21.8868 30.566 23.9986 30.566 26.6037C30.566 29.2088 32.6779 31.3207 35.283 31.3207ZM21.132 4.71698C21.132 2.11186 23.2439 0 25.849 0H35.283C37.8881 0 40 2.11186 40 4.71698C40 7.3221 37.8881 9.43396 35.283 9.43396H25.849C23.2439 9.43396 21.132 7.3221 21.132 4.71698ZM15.283 21.8868C12.6779 21.8868 10.566 23.9986 10.566 26.6037C10.566 29.2088 12.6779 31.3207 15.283 31.3207H24.717C27.3221 31.3207 29.4339 29.2088 29.4339 26.6037C29.4339 23.9986 27.3221 21.8868 24.717 21.8868H15.283Z" fill="white"/>
</svg>
