<svg width="20" height="24" viewBox="0 0 20 24" fill="none" xmlns="http://www.w3.org/2000/svg">
<path d="M20 4.37499C20 3.56972 19.3603 2.91666 18.5714 2.91666H1.42857C0.638391 2.91666 0 3.56972 0 4.37499C0 5.18163 0.638391 5.83332 1.42857 5.83332H18.5714C19.3603 5.83332 20 5.18163 20 4.37499ZM20 11.6667C20 10.86 19.3603 10.2083 18.5714 10.2083H7.14286C6.35268 10.2083 5.71428 10.86 5.71428 11.6667C5.71428 12.4733 6.35268 13.125 7.14286 13.125H18.5714C19.3603 13.125 20 12.4733 20 11.6667ZM12.8571 20.4167H18.5714C19.3603 20.4167 20 19.765 20 18.9583C20 18.1517 19.3603 17.5 18.5714 17.5H12.8571C12.067 17.5 11.4286 18.1517 11.4286 18.9583C11.4286 19.765 12.067 20.4167 12.8571 20.4167Z" fill="#280A5F"/>
</svg>
